{"accessors":[{"bufferView":0,"byteOffset":0,"componentType":5126,"count":2460,"max":[6.2,0.2,6.2],"min":[0,0,0],"normalized":false,"type":"VEC3"},{"bufferView":1,"byteOffset":0,"componentType":5126,"count":2460,"max":[1,1,1],"min":[-1,-1,-1],"normalized":false,"type":"VEC3"},{"bufferView":2,"byteOffset":0,"componentType":5125,"count":2460,"max":[2459],"min":[0],"normalized":false,"type":"SCALAR"}],"asset":{"generator":"Godot Engine v4.1.1.stable.official@bd6af8e0ea69167dd0627f3bd54f9105bda0f8b5","version":"2.0"},"bufferViews":[{"buffer":0,"byteLength":29520,"byteOffset":0},{"buffer":0,"byteLength":29520,"byteOffset":29520},{"buffer":0,"byteLength":9840,"byteOffset":59040}],"buffers":[{"byteLength":68880,"uri":"marching_cubes_bloyd_viewer_bloyd0.bin"}],"materials":[{"extensions":{},"pbrMetallicRoughness":{"baseColorFactor":[0,0,0.99999988079071,1],"metallicFactor":0,"roughnessFactor":1}}],"meshes":[{"extras":{"targetNames":[]},"primitives":[{"attributes":{"NORMAL":1,"POSITION":0},"indices":2,"material":0,"mode":4}]}],"nodes":[{"children":[1],"extensions":{},"name":"marching_cubes_bloyd"},{"extensions":{},"mesh":0,"name":"mesh"}],"scene":0,"scenes":[{"nodes":[0]}]}