{"accessors":[{"bufferView":0,"byteOffset":0,"componentType":5126,"count":1110,"max":[0.990476,0.9375,0.98324],"min":[0.07619,0.0625,0.089385],"normalized":false,"type":"VEC3"},{"bufferView":1,"byteOffset":0,"componentType":5126,"count":1110,"max":[1,1,1],"min":[-1,-1,-1],"normalized":false,"type":"VEC3"},{"bufferView":2,"byteOffset":0,"componentType":5125,"count":1110,"max":[1109],"min":[0],"normalized":false,"type":"SCALAR"},{"bufferView":3,"byteOffset":0,"componentType":5126,"count":504,"max":[1.066667,1,1.072626],"min":[0,0,0],"normalized":false,"type":"VEC3"},{"bufferView":4,"byteOffset":0,"componentType":5126,"count":504,"max":[1,1,1,1],"min":[0,0,0,1],"normalized":false,"type":"VEC4"}],"asset":{"generator":"Godot Engine v4.1.1.stable.official@bd6af8e0ea69167dd0627f3bd54f9105bda0f8b5","version":"2.0"},"bufferViews":[{"buffer":0,"byteLength":13320,"byteOffset":0},{"buffer":0,"byteLength":13320,"byteOffset":13320},{"buffer":0,"byteLength":4440,"byteOffset":26640},{"buffer":0,"byteLength":6048,"byteOffset":31080},{"buffer":0,"byteLength":8064,"byteOffset":37128}],"buffers":[{"byteLength":45192,"uri":"marching_cubes_test0.bin"}],"cameras":[{"perspective":{"yfov":1.30899691581726,"zfar":4000,"znear":0.0500000007450581},"type":"perspective"}],"extensions":{"KHR_lights_punctual":{"lights":[{"color":[1,1,1],"intensity":1,"range":340282346638528860000000000000000000000,"type":"directional"}]}},"extensionsUsed":["KHR_lights_punctual","KHR_materials_unlit"],"materials":[{"extensions":{},"pbrMetallicRoughness":{"baseColorFactor":[0,0,0.99999988079071,1],"metallicFactor":0,"roughnessFactor":1}},{"extensions":{"KHR_materials_unlit":{}},"pbrMetallicRoughness":{"baseColorFactor":[0.99999988079071,0.99999988079071,0.99999988079071,1],"metallicFactor":0,"roughnessFactor":1}}],"meshes":[{"extras":{"targetNames":[]},"primitives":[{"attributes":{"NORMAL":1,"POSITION":0},"indices":2,"material":0,"mode":4}]},{"extras":{"targetNames":[]},"primitives":[{"attributes":{"COLOR_0":4,"POSITION":3},"material":1,"mode":0}]}],"nodes":[{"children":[1,2,3,4],"extensions":{},"name":"marching_cubes_test"},{"extensions":{},"name":"WorldEnvironment"},{"camera":0,"extensions":{},"name":"Camera3D","translation":[0,0,3.04327011108398]},{"extensions":{"KHR_lights_punctual":{"light":0}},"name":"DirectionalLight3D","rotation":[-0.59658420085907,-0.19381332397461,0.240629151463509,0.740689754486084],"translation":[-4.43772983551025,1.72817003726959,0]},{"children":[5,6],"extensions":{},"name":"marching_cubes","translation":[-0.30660501122475,0.315620988607407,0.179627999663353]},{"extensions":{},"mesh":0,"name":"mesh"},{"extensions":{},"mesh":1,"name":"mesh_points"}],"scene":0,"scenes":[{"nodes":[0]}]}